<?xml version="1.0" standalone="no"?>
<!DOCTYPE svg PUBLIC "-//W3C//DTD SVG 20010904//EN"
 "http://www.w3.org/TR/2001/REC-SVG-20010904/DTD/svg10.dtd">
<svg version="1.0" xmlns="http://www.w3.org/2000/svg"
 width="482.000000pt" height="482.000000pt" viewBox="0 0 482.000000 482.000000"
 preserveAspectRatio="xMidYMid meet">
<metadata>
Created by potrace 1.11, written by Peter Selinger 2001-2013
</metadata>
<g transform="translate(0.000000,482.000000) scale(0.100000,-0.100000)"
fill="#000000" stroke="none">
<path d="M1354 4222 c-568 -328 -1028 -601 -1024 -605 4 -5 191 -115 416 -245
l408 -237 189 -400 c104 -220 387 -818 628 -1328 l439 -928 0 -240 c0 -131 2
-239 5 -239 2 0 28 14 57 31 91 54 1869 1080 1945 1123 l73 41 -1 1215 0 1215
-1031 595 c-567 327 -1040 596 -1052 597 -12 1 -456 -250 -1052 -595z m1688
-247 c332 -191 607 -351 611 -355 5 -4 -85 -62 -200 -128 l-208 -121 -334
-770 c-184 -424 -337 -771 -340 -771 -3 1 -42 22 -86 48 l-80 48 -3 1203 c-2
1190 -2 1203 17 1198 11 -3 291 -161 623 -352z m1038 -2045 c0 -701 -3 -960
-11 -960 -17 0 -700 392 -705 404 -2 6 143 322 322 701 179 380 339 718 355
753 15 34 31 62 34 62 3 0 5 -432 5 -960z"/>
<path d="M740 1919 l0 -965 617 -356 c340 -196 619 -355 621 -353 2 1 -116
255 -262 564 -146 308 -266 564 -266 567 0 6 -543 1160 -674 1434 l-36 74 0
-965z"/>
</g>
</svg>
